<svg xmlns="http://www.w3.org/2000/svg" viewBox="0 0 691.6 686.65"><defs><style>.cls-1{fill:#39a8e0;}.cls-2{fill:none;stroke:#f2cb02;stroke-miterlimit:10;stroke-width:5px;}.cls-3{fill:#e94683;}</style></defs><g id="Layer_2" data-name="Layer 2"><g id="ARBOARD_5" data-name="ARBOARD 5"><path class="cls-1" d="M611.83,246.42l-93-11.69c-7.42-.93-15-2.5-22.36-.67A68.12,68.12,0,0,0,485.74,238c-3.36,1.46-6.67,3-9.94,4.71-13.73,7-27.17,14.6-40.71,21.94l-46,24.95c-2.83,1.54-.31,5.85,2.53,4.32,27.05-14.68,54-29.57,81.17-44a173,173,0,0,1,19.67-9.3,31.57,31.57,0,0,1,10.68-2.43,77.83,77.83,0,0,1,11.2,1l46,5.79,51.46,6.46a2.51,2.51,0,0,0,2.5-2.5,2.57,2.57,0,0,0-2.5-2.5Z" transform="translate(-131.47 -141.87)"/><path class="cls-1" d="M588.82,468.51a26.2,26.2,0,0,1,3.82,10.75c.4,3.57.48,7.8-1.37,11-3.5,6.08-12.52,5.31-18,3a23.17,23.17,0,0,1-9.16-6.79,2.52,2.52,0,0,0-3.54,0,2.55,2.55,0,0,0,0,3.53c5.07,6.28,13.83,10.45,22,9.9,4.32-.29,9-1.86,11.83-5.32,3.07-3.76,3.71-8.75,3.48-13.46A31.47,31.47,0,0,0,593.13,466c-1.68-2.73-6-.22-4.31,2.52Z" transform="translate(-131.47 -141.87)"/><path class="cls-1" d="M622.93,430.81A45,45,0,0,0,611,394.15c-2.22-2.34-5.75,1.2-3.54,3.54,7.83,8.28,12.19,20.4,10.63,31.79a2.59,2.59,0,0,0,1.75,3.07c1.17.32,2.89-.4,3.07-1.74Z" transform="translate(-131.47 -141.87)"/><path class="cls-1" d="M573.86,443.64a38.59,38.59,0,0,0,5.14,15.2c2.7,4.54,6.46,8.74,11.39,10.87a14,14,0,0,0,8.09,1.2,10.49,10.49,0,0,0,6.72-4.68,88,88,0,0,0,4.7-8.24c1.45-2.66,2.87-5.32,4.24-8q4.82-9.44,8.81-19.26a2.52,2.52,0,0,0-1.75-3.07,2.55,2.55,0,0,0-3.07,1.75,267.89,267.89,0,0,1-14.56,29.72c-1.12,2-2.16,4.63-4.05,6.05-1.61,1.22-3.74,1.09-5.57.56-4.2-1.21-7.47-4.54-9.81-8.09a32.87,32.87,0,0,1-5.28-14,2.58,2.58,0,0,0-2.5-2.5,2.51,2.51,0,0,0-2.5,2.5Z" transform="translate(-131.47 -141.87)"/><path class="cls-2" d="M613.3,389.28c-28.36,47-45.32,64.15-45.32,64.15-4,47.7-23,84.63-29.76,96.35" transform="translate(-131.47 -141.87)"/><path class="cls-2" d="M542,320.56c13-13.09,28.64-28,47.3-44.63,0,0,.39-13.87,26.73-29.67,0,0-9.28-9.72,2.56-16.72,0,0,9.13-11,18.68.85l22.59,16.69,21.89,17.57c13.92,6.21,5.6,17.84,5.6,17.84-3.75,13.24-15.51,6.75-15.51,6.75C663.33,318.75,650,322.66,650,322.66" transform="translate(-131.47 -141.87)"/><path class="cls-1" d="M649.34,325.07c9,2.41,18.13,4.22,26.81,7.59a39.59,39.59,0,0,1,11,6.06A28.16,28.16,0,0,1,695.23,351a38.64,38.64,0,0,1,2.11,8,15.35,15.35,0,0,1-.94,7.16c-1.75,4.86-5.7,8.61-10,11.2-4.77,2.84-10.1,4.53-15.4,6a146.16,146.16,0,0,1-17.42,3.8,117,117,0,0,1-39.56-.26,2.57,2.57,0,0,0-3.08,1.75,2.53,2.53,0,0,0,1.75,3.07,120.68,120.68,0,0,0,38,.85A150.11,150.11,0,0,0,669.3,389a85.15,85.15,0,0,0,17.17-6,30.5,30.5,0,0,0,13-11.67,22.52,22.52,0,0,0,2.84-8.49,23.56,23.56,0,0,0-.86-8.55,40,40,0,0,0-7.83-16.16,32.79,32.79,0,0,0-11.06-8c-10.08-4.84-21.15-6.89-31.88-9.77-3.11-.84-4.44,4-1.33,4.82Z" transform="translate(-131.47 -141.87)"/><path class="cls-1" d="M650,320.16c-22.61-2.25-45.31-.54-68-.18-20.1.33-40.44-.52-59.87-6.1a101.6,101.6,0,0,1-29.5-13.61,2.5,2.5,0,1,0-2.52,4.32c16.57,11.34,36.28,16.71,56,19,21.69,2.51,43.54,1.1,65.3.57a311.43,311.43,0,0,1,38.52,1,2.52,2.52,0,0,0,2.5-2.5,2.55,2.55,0,0,0-2.5-2.5Z" transform="translate(-131.47 -141.87)"/><path class="cls-1" d="M612.64,386.87Q590,392.07,567,395.69q-11.13,1.77-22.3,3.19c-6.15.77-12.34,1.49-18.54,1.05s-12.27-2.27-16.59-6.86c-2.22-2.35-5.75,1.19-3.54,3.53,8.82,9.36,22.91,9.13,34.72,7.76,15.64-1.81,31.24-4.26,46.72-7.15q13.29-2.49,26.48-5.52c3.13-.72,1.81-5.54-1.33-4.82Z" transform="translate(-131.47 -141.87)"/><path class="cls-1" d="M690.51,335.34a82.56,82.56,0,0,0-21.15-2.81A134.06,134.06,0,0,0,653.25,334a2.55,2.55,0,0,0-2.41,3.17c2.26,8.58,2.93,17,3.66,25.88a49.25,49.25,0,0,0,.75,6.05,5.94,5.94,0,0,0,3.49,4.23c5,2.63,10.62,3.16,16.14,3.25a97.63,97.63,0,0,0,22-2.44c3.14-.68,1.81-5.5-1.33-4.82a94.71,94.71,0,0,1-18.06,2.25c-4.94.1-10.52.07-15.09-2-.48-.21-.95-.45-1.41-.7-.25-.14-.49-.28-.73-.44-.61-.4-.06,0-.07,0l-.15-.14c.23.34.29.41.17.23-.15-.39.15.53.09.2s-.18-.61-.24-.92-.15-.8-.21-1.2.08.61,0-.22c0-.22-.05-.44-.08-.66-.11-1.06-.21-2.13-.29-3.2-.32-4.07-.73-8.13-1.19-12.19a101.22,101.22,0,0,0-2.61-14.46L653.25,339A136.68,136.68,0,0,1,669,337.53a76.74,76.74,0,0,1,20.16,2.63c3.12.8,4.45-4,1.33-4.82Z" transform="translate(-131.47 -141.87)"/><path class="cls-3" d="M429.25,755.69c-6-3.32-10.09-8.84-13.24-14.79s-5.17-12.61-9.06-18.27a2.56,2.56,0,0,0-3.42-.89,2.52,2.52,0,0,0-.89,3.42c4.05,5.9,6,12.69,9.42,19s8.19,12.31,14.66,15.89c2.82,1.56,5.35-2.75,2.53-4.31Z" transform="translate(-131.47 -141.87)"/><path class="cls-3" d="M503.27,480.47a97.53,97.53,0,0,1,16.31,40.95,2.52,2.52,0,0,0,3.08,1.75,2.56,2.56,0,0,0,1.74-3.08A100.75,100.75,0,0,0,507.59,478a2.56,2.56,0,0,0-3.42-.9,2.53,2.53,0,0,0-.9,3.42Z" transform="translate(-131.47 -141.87)"/><path class="cls-3" d="M519.83,522a108.62,108.62,0,0,1,17.76,34.05c4,13.28,4.63,27.23,6.61,40.88,3.78,26,14.08,50.35,26.47,73.31,7,12.89,14.57,25.4,22.2,37.89,1.68,2.74,6,.23,4.32-2.52-13.54-22.16-27.21-44.51-36.83-68.71a183.89,183.89,0,0,1-10.66-37c-2.37-13.9-2.79-28.13-6.34-41.82a110.64,110.64,0,0,0-19.21-38.61,2.58,2.58,0,0,0-3.42-.9,2.52,2.52,0,0,0-.9,3.42Z" transform="translate(-131.47 -141.87)"/><path class="cls-3" d="M359.31,492.32c-4.39-5.43-10.3-12.46-7.89-20,1.09-3.39,4.29-5.92,7.43-7.36a23.62,23.62,0,0,1,10-1.92,25.19,25.19,0,0,1,11.1,2.48c2.87,1.45,5.4-2.86,2.53-4.31a30.82,30.82,0,0,0-24.74-1.16c-4.17,1.7-8.2,4.67-10.23,8.81-2.3,4.69-1.9,10.17.15,14.87,1.94,4.44,5.14,8.35,8.15,12.09a2.53,2.53,0,0,0,3.54,0,2.56,2.56,0,0,0,0-3.54Z" transform="translate(-131.47 -141.87)"/><path class="cls-3" d="M336.59,524.54a7.72,7.72,0,0,0-1.62-4.41c-.89-1.35-1.79-2.67-2.6-4.07-1.72-3-3.39-6.46-2.77-10,1.09-6.24,7.67-10,13.59-10a22.86,22.86,0,0,1,11,2.89c2.82,1.57,5.34-2.75,2.53-4.32-6.9-3.85-16-5.12-23.15-1.17a18,18,0,0,0-7.75,8.13,15.66,15.66,0,0,0,0,12.5,41.46,41.46,0,0,0,3.43,6.53c.46.74,1,1.44,1.45,2.17a9.2,9.2,0,0,1,.69,1.17c.39.81.14.32.11.25.17.45.08-.11,0,.32-.18,3.22,4.82,3.21,5,0Z" transform="translate(-131.47 -141.87)"/><path class="cls-3" d="M334.35,519.29A16.35,16.35,0,0,0,314,518.22a15.64,15.64,0,0,0-6,9.57,30.25,30.25,0,0,0,.39,12,33.89,33.89,0,0,0,4.24,11.16c1.74,2.7,6.07.19,4.32-2.52a30.17,30.17,0,0,1-3.81-10.32c-.75-3.7-1.11-8.11.48-11.68,2.86-6.4,12-8.4,17.23-3.55,2.35,2.19,5.89-1.34,3.53-3.54Z" transform="translate(-131.47 -141.87)"/><path class="cls-3" d="M507.59,478a40.38,40.38,0,0,0-15.51-13.69c-3.24-1.58-7.68-3.77-10.65-.5-2.39,2.64-1.67,6.59-.85,9.7,4.27,16.16,12.81,30.78,21.27,45,2.12,3.59,4.77,6.58,9.25,6.54,3.71,0,7.19-1.88,10.89-1.78,3.22.08,3.22-4.92,0-5-3.06-.09-6,1-9,1.57-2.63.5-4.28.11-5.84-2.21-1.94-2.91-3.61-6.05-5.36-9.08-1.9-3.27-3.76-6.57-5.53-9.91a138.07,138.07,0,0,1-8.77-19.6c-.59-1.7-1.14-3.42-1.63-5.16a22.84,22.84,0,0,1-1.07-4.55,6.38,6.38,0,0,1,.05-1.49,3.58,3.58,0,0,1,.16-.56c-.14.33.23-.39,0-.07.23-.36.25-.15.05-.11a2,2,0,0,1,.65,0,9.56,9.56,0,0,1,2.41.88,35.85,35.85,0,0,1,15.11,12.55,2.57,2.57,0,0,0,3.42.9,2.52,2.52,0,0,0,.9-3.42Z" transform="translate(-131.47 -141.87)"/><path class="cls-3" d="M351,477.7a45.61,45.61,0,0,1-5-10.94,37.69,37.69,0,0,1-1.32-5.43,7.36,7.36,0,0,1,.14-3.48c.51-1.2,1.85-1.08,3.18-1a29.65,29.65,0,0,1,5.53.89,42.1,42.1,0,0,1,11,4.62c2.78,1.62,5.3-2.7,2.52-4.32a49.18,49.18,0,0,0-10.32-4.6c-3.34-1-7.25-1.93-10.77-1.58-3.83.39-6,3.14-6.36,6.84-.31,3.25.73,6.74,1.7,9.81a51.71,51.71,0,0,0,5.41,11.72c1.7,2.72,6,.21,4.32-2.53Z" transform="translate(-131.47 -141.87)"/><path class="cls-3" d="M330.89,513.24a94.67,94.67,0,0,1-6-10.65c-1.32-2.9-2.85-6.68-2.36-10,.15-1,.4-1.67,1.48-1.81a17.43,17.43,0,0,1,5.43.41,35.79,35.79,0,0,1,11.31,4.53c2.78,1.64,5.29-2.68,2.52-4.32a42.05,42.05,0,0,0-10.59-4.59,31.92,31.92,0,0,0-5.58-1,12.65,12.65,0,0,0-5.2.31c-7.52,2.68-3.75,13.47-1.51,18.51a89.4,89.4,0,0,0,6.22,11.05c1.71,2.73,6,.22,4.32-2.52Z" transform="translate(-131.47 -141.87)"/><path class="cls-3" d="M313.11,538.6a61.18,61.18,0,0,1-5.4-10.76,50.32,50.32,0,0,1-1.89-6.12,11.89,11.89,0,0,1-.41-4.36c.16-1.14.48-1.7,1.67-1.82a20.77,20.77,0,0,1,5.45.36,32.42,32.42,0,0,1,11.1,4.11c2.78,1.64,5.3-2.68,2.53-4.31a35.71,35.71,0,0,0-16-5.09,14.64,14.64,0,0,0-5.24.26c-7.66,2.39-3.91,13.44-2,18.51a68.23,68.23,0,0,0,5.82,11.74c1.7,2.73,6,.23,4.32-2.52Z" transform="translate(-131.47 -141.87)"/><path class="cls-2" d="M480.06,626.17,358.94,783.43c-15.26,19.82-24.22,9.69-24.22,9.69L215,700.92s-12.07-6.07,3.19-25.88L395.11,445.31s2.05-2.25,5.94-5.93" transform="translate(-131.47 -141.87)"/><path class="cls-1" d="M527,400.37c-16.39,11.11-33,22.18-51.18,30.21a125.12,125.12,0,0,1-27.56,8.77,98.21,98.21,0,0,1-30.37.63c-12.14-1.53-24-4.86-35.71-8.25-3.1-.89-4.42,3.93-1.33,4.82,20.95,6.05,42.41,11.43,64.34,8.34,19.92-2.8,38.56-11.62,55.73-21.75,9.78-5.77,19.21-12.08,28.6-18.45,2.65-1.8.15-6.13-2.52-4.32Z" transform="translate(-131.47 -141.87)"/><path class="cls-3" d="M475,699.83c-.56-16.34-1.18-32.9,1.53-49.1,2.65-15.8,9.47-30.77,10.36-46.89S482.47,572.23,478,557c-3.89-13.32-8-27.91-5.45-41.87a37.31,37.31,0,0,1,3-9.51,84.39,84.39,0,0,1,4.65-8.1c.49-.79,1-1.56,1.55-2.3-.39.51.19-.22.34-.39s.45-.48.69-.71.49-.44.75-.66l.37-.3c.31-.25-.35.26.12-.09l2.17-1.61q1.77-1.32,3.49-2.68a2.51,2.51,0,0,0,0-3.53,2.56,2.56,0,0,0-3.54,0c-3,2.33-6.3,4.28-8.6,7.31a54.38,54.38,0,0,0-3.5,5.5,53.69,53.69,0,0,0-4.74,9.73c-4.72,13.74-1.91,29,1.68,42.64,4,15.33,10.09,30.47,10.87,46.46a78.51,78.51,0,0,1-2.82,23.41c-2,7.83-4.55,15.53-6.28,23.43-3.57,16.35-3.52,33.18-3,49.82q.09,3.13.21,6.27c.1,3.21,5.1,3.22,5,0Z" transform="translate(-131.47 -141.87)"/><path class="cls-3" d="M154.89,602.64q-3.69-8.76-1-15.71T165,576.43a20.65,20.65,0,0,1,9.18-1.65,16.92,16.92,0,0,1,8.71,2.9,19.5,19.5,0,0,1,6.55,7.85l-1.86,1.4a28.84,28.84,0,0,1-2.09-8,20.87,20.87,0,0,1,.68-8.14,19.24,19.24,0,0,1,4-7.27,21.2,21.2,0,0,1,8-5.43,23.79,23.79,0,0,1,10.1-2.1,18.51,18.51,0,0,1,8.44,2.27,21.75,21.75,0,0,1,6.51,5.55,32.68,32.68,0,0,1,4.54,7.72l11.8,28a3.2,3.2,0,0,1,0,2.64,3.34,3.34,0,0,1-1.81,1.81L171,632.07a3.29,3.29,0,0,1-2.56,0,3.18,3.18,0,0,1-1.88-1.85Zm6.65-1.7,10.26,24.4-2.5-.42,29.5-12.42-1.08,1.81-10.27-24.39a14.41,14.41,0,0,0-7.38-7.64q-5-2.25-11.77.6-5.64,2.37-7.49,7.14T161.54,600.94Zm32-14.43,10.3,24.5-.94-.22,29.92-12.59-.68,1-10.4-24.7a19.72,19.72,0,0,0-8.12-9.84q-5.28-3.06-12.68.06-5.21,2.19-7.42,5.7a12.82,12.82,0,0,0-2,7.7A24.93,24.93,0,0,0,193.51,586.51Z" transform="translate(-131.47 -141.87)"/><path class="cls-3" d="M142.59,518.91l71.1,18.73a3.62,3.62,0,0,1,1.84,1,3,3,0,0,1,.79,1.72,3.24,3.24,0,0,1-.53,2.58,3,3,0,0,1-2,1,2.86,2.86,0,0,1-1.36,0l-76.23-20.47a3.29,3.29,0,0,1-1.9-1.08,3.67,3.67,0,0,1-.75-1.9,3.46,3.46,0,0,1,.36-2.15,4,4,0,0,1,1.46-1.5l68.43-38.61a4.27,4.27,0,0,1,1.32-.4,3,3,0,0,1,2.54.71,3.65,3.65,0,0,1,1.14,2.25,3.28,3.28,0,0,1-.37,2,4.06,4.06,0,0,1-1.47,1.5L142.28,521Zm49.75,14.81-7-2L181,497l6.45-2.18Z" transform="translate(-131.47 -141.87)"/><path class="cls-3" d="M209.84,462.59a3.83,3.83,0,0,1-1.43,2.58,3.14,3.14,0,0,1-2.51.7l-71.54-11a3.33,3.33,0,0,1-2.21-1.31,3.2,3.2,0,0,1-.63-2.56l4.63-30.18a23.79,23.79,0,0,1,4.49-11,20.47,20.47,0,0,1,8.76-6.73A21.39,21.39,0,0,1,160.79,402a22.42,22.42,0,0,1,8.73,3.17,19.79,19.79,0,0,1,6.16,6.09,22.85,22.85,0,0,1,3.19,7.93l-2,3.71a17.87,17.87,0,0,1,3.93-7.3,17.25,17.25,0,0,1,7.14-4.79,20.38,20.38,0,0,1,9.8-.84,67.52,67.52,0,0,0,7.57.65,11.82,11.82,0,0,0,4.2-.56,6.05,6.05,0,0,0,2.43-1.69,3.4,3.4,0,0,1,2.14-1.21,2.76,2.76,0,0,1,2.3.64,2.68,2.68,0,0,1,1.08,1.54,4.46,4.46,0,0,1,.12,1.84,3.31,3.31,0,0,1-.71,1.61,11,11,0,0,1-3.29,2.82,15.79,15.79,0,0,1-6,1.76,39.14,39.14,0,0,1-10.45-.51,15.77,15.77,0,0,0-7.31.3A12.05,12.05,0,0,0,185,420a12.9,12.9,0,0,0-2.86,4.48,24.14,24.14,0,0,0-1.32,4.89l-4,26L175.35,454,207,458.83a3.52,3.52,0,0,1,2.21,1.25A3,3,0,0,1,209.84,462.59Zm-39.26-8.09,4.3-28.06a15.57,15.57,0,0,0-1.36-7.48,16.47,16.47,0,0,0-5.15-6.34,18.33,18.33,0,0,0-8.56-3.49,14.32,14.32,0,0,0-11.23,2.68,15.62,15.62,0,0,0-5.92,10.59l-4.1,26.72-1.33-1,35.1,5.39Z" transform="translate(-131.47 -141.87)"/><path class="cls-3" d="M176.3,308.35a3,3,0,0,1,1.82-1.7,3.21,3.21,0,0,1,2.4.22l65.22,31.41a3.4,3.4,0,0,1,1.93,2.12,3.55,3.55,0,0,1-.19,2.61,4.17,4.17,0,0,1-.92,1.25,2.66,2.66,0,0,1-1.28.7l-83,16-.18-2.23,60.43,29.1a3,3,0,0,1,1.54,1.75,3.08,3.08,0,0,1-.16,2.43,3,3,0,0,1-4.13,1.53L154.23,362a3.2,3.2,0,0,1-1.64-4.43,4.54,4.54,0,0,1,.89-1.2,2.45,2.45,0,0,1,1.41-.71l82.17-15.79,1.35,1.91-60.63-29.2a3.09,3.09,0,0,1-1.48-4.23Z" transform="translate(-131.47 -141.87)"/><path class="cls-3" d="M275.59,309.26a35.92,35.92,0,0,1-11.84,9.49,40.68,40.68,0,0,1-14.31,3.55,5.9,5.9,0,0,1-1.57-.09,3.12,3.12,0,0,1-1.45-.75,3.51,3.51,0,0,1-1.16-2.45,3.24,3.24,0,0,1,.75-2.57,3.44,3.44,0,0,1,2.49-1.13,30.47,30.47,0,0,0,12-2.76,29.35,29.35,0,0,0,9.8-7.43,25.92,25.92,0,0,0,5.1-8.39,15.78,15.78,0,0,0,.77-8.27,11.59,11.59,0,0,0-3.89-6.71,12.67,12.67,0,0,0-8.2-3.34,21.91,21.91,0,0,0-8.88,2.07,68.46,68.46,0,0,0-9.59,5.28c-2.77,1.69-5.53,3.2-8.27,4.56a31.14,31.14,0,0,1-8.15,2.79,17.79,17.79,0,0,1-8-.35,20.24,20.24,0,0,1-7.92-4.53,18.65,18.65,0,0,1-6-9.42,21,21,0,0,1,.39-11.61,32.24,32.24,0,0,1,6.9-11.92,37.16,37.16,0,0,1,10.16-8.17,22.31,22.31,0,0,1,11.47-3,5.12,5.12,0,0,1,3.58.88,3.15,3.15,0,0,1,1,2.38A3.53,3.53,0,0,1,240,250a2.63,2.63,0,0,1-1.86.93,20,20,0,0,0-6.4.86,24.93,24.93,0,0,0-6.45,3,27,27,0,0,0-5.65,4.9,26.42,26.42,0,0,0-5.06,8.27,15.32,15.32,0,0,0-.86,8.11,11.61,11.61,0,0,0,4,6.75,11.07,11.07,0,0,0,7.62,3.06,21,21,0,0,0,8.44-2.08q4.4-2,8.95-4.64a96.5,96.5,0,0,1,8.48-5,33.51,33.51,0,0,1,8.5-3.09,18.57,18.57,0,0,1,8.51.24,22.2,22.2,0,0,1,8.79,5.07,17.63,17.63,0,0,1,5.67,9.32,22.78,22.78,0,0,1-.39,11.61A32,32,0,0,1,275.59,309.26Z" transform="translate(-131.47 -141.87)"/><path class="cls-3" d="M258.21,222.25a3.47,3.47,0,0,1-2.47.6,2.92,2.92,0,0,1-2.12-1.28,3,3,0,0,1-.5-2.54,3.4,3.4,0,0,1,1.44-2.09l44.25-30.46a3.6,3.6,0,0,1,2.56-.67,3,3,0,0,1,2.19,1.38,2.91,2.91,0,0,1,.48,2.49,3.79,3.79,0,0,1-1.58,2.11Zm63.41,44.64a3.51,3.51,0,0,1-2.71.64,3.28,3.28,0,0,1-2.19-1.38L275.87,206.8l5.86-4,40.86,59.35a3.28,3.28,0,0,1,.51,2.53A3.43,3.43,0,0,1,321.62,266.89Z" transform="translate(-131.47 -141.87)"/><path class="cls-3" d="M333.76,169.58l38.83-14.36a3.5,3.5,0,0,1,2.66,0,3.21,3.21,0,0,1,1.8,1.93,3,3,0,0,1-.13,2.58,3.62,3.62,0,0,1-2,1.71l-36.39,13.46.4-2.2,11,29.81-1.68-1L380,189.88a3.4,3.4,0,0,1,2.69.09,3.27,3.27,0,0,1,1.78,1.87,3,3,0,0,1-.13,2.58,3.57,3.57,0,0,1-2,1.71l-31.5,11.65.56-1.41,11.3,30.55-.77-.44,35.86-13.25a3.37,3.37,0,0,1,2.68.09,3.21,3.21,0,0,1,1.78,1.87,3,3,0,0,1-.13,2.58,3.55,3.55,0,0,1-2,1.71l-38.83,14.36a3.21,3.21,0,0,1-2.63-.11,3.34,3.34,0,0,1-1.72-1.9l-25.11-67.89a3.35,3.35,0,0,1,.08-2.56A3.21,3.21,0,0,1,333.76,169.58Z" transform="translate(-131.47 -141.87)"/><path class="cls-3" d="M411.37,146.62l41.12-4.72a3.47,3.47,0,0,1,2.58.67,3.2,3.2,0,0,1,1.29,2.3,3,3,0,0,1-.74,2.47,3.57,3.57,0,0,1-2.37,1.19L414.71,153l.91-2,3.62,31.57-1.4-1.31,33.59-3.86A3.38,3.38,0,0,1,454,178a3.24,3.24,0,0,1,1.28,2.24,3,3,0,0,1-.74,2.48,3.56,3.56,0,0,1-2.37,1.18l-33.37,3.83.88-1.24,3.72,32.36-.64-.61,38-4.36a3.4,3.4,0,0,1,2.58.73,3.28,3.28,0,0,1,1.29,2.25,3,3,0,0,1-.75,2.47,3.56,3.56,0,0,1-2.36,1.18l-41.13,4.72a3.21,3.21,0,0,1-2.53-.73,3.35,3.35,0,0,1-1.23-2.25l-8.25-71.92a3.37,3.37,0,0,1,.69-2.47A3.2,3.2,0,0,1,411.37,146.62Z" transform="translate(-131.47 -141.87)"/><path class="cls-3" d="M548.16,151a3,3,0,0,1,2.15,1.26,3.22,3.22,0,0,1,.48,2.37l-11.52,71.46a3.39,3.39,0,0,1-1.48,2.46,3.57,3.57,0,0,1-2.56.56,4.18,4.18,0,0,1-1.46-.52,2.85,2.85,0,0,1-1-1l-39-75,2.08-.81-10.67,66.21a3,3,0,0,1-1.24,2,3.09,3.09,0,0,1-2.38.54,3,3,0,0,1-2.64-3.52l11.57-71.8a3.29,3.29,0,0,1,1.35-2.31,3.24,3.24,0,0,1,2.43-.52,4.4,4.4,0,0,1,1.41.51,2.39,2.39,0,0,1,1.07,1.15l38.56,74.26L533.83,220l10.7-66.44a3.08,3.08,0,0,1,1.26-2.09A3,3,0,0,1,548.16,151Z" transform="translate(-131.47 -141.87)"/><path class="cls-1" d="M556.76,743.87q9.09-2.79,15.73.55t9.34,12.1a20.61,20.61,0,0,1,.73,9.3,16.94,16.94,0,0,1-3.75,8.37,19.51,19.51,0,0,1-8.47,5.74l-1.21-2a28.8,28.8,0,0,1,8.19-1.27,20.9,20.9,0,0,1,8,1.49,19.14,19.14,0,0,1,6.83,4.71,21.12,21.12,0,0,1,4.61,8.46,23.68,23.68,0,0,1,1.09,10.26,18.57,18.57,0,0,1-3.11,8.17,21.77,21.77,0,0,1-6.17,5.92,32.32,32.32,0,0,1-8.14,3.74l-29.08,9a3.23,3.23,0,0,1-2.62-.26,3.4,3.4,0,0,1-1.62-2l-21.27-69.19a3.33,3.33,0,0,1,.22-2.55,3.2,3.2,0,0,1,2-1.69Zm1,6.79-25.3,7.77.66-2.45,9.41,30.6-1.69-1.26,25.3-7.78A14.44,14.44,0,0,0,574.5,771q2.75-4.76.58-11.78-1.8-5.83-6.36-8.16T557.79,750.66ZM569,783.91l-25.41,7.81.31-.93,9.54,31-.95-.77,25.62-7.88a19.66,19.66,0,0,0,10.6-7.11q3.55-4.93,1.21-12.61-1.67-5.41-4.93-8a12.82,12.82,0,0,0-7.47-2.74A25.06,25.06,0,0,0,569,783.91Z" transform="translate(-131.47 -141.87)"/><path class="cls-1" d="M641,793.59a3.84,3.84,0,0,1-2.88.65,3.18,3.18,0,0,1-2.19-1.42L596.68,732a3.36,3.36,0,0,1-.48-2.52,3.22,3.22,0,0,1,1.5-2.18l25.66-16.55a23.63,23.63,0,0,1,11.19-3.92,20.42,20.42,0,0,1,10.84,2.09,21.23,21.23,0,0,1,8.43,7.75,22.5,22.5,0,0,1,3.42,8.63,19.73,19.73,0,0,1-.48,8.66A22.65,22.65,0,0,1,653,741.6l-4.07,1a17.88,17.88,0,0,1,8.06-1.91,17.29,17.29,0,0,1,8.33,2.17,20.37,20.37,0,0,1,7.13,6.77,64.6,64.6,0,0,0,4.54,6.1,11.72,11.72,0,0,0,3.2,2.77,6.06,6.06,0,0,0,2.88.7,3.43,3.43,0,0,1,2.32.79,2.79,2.79,0,0,1,1,2.15A2.67,2.67,0,0,1,686,764a4.42,4.42,0,0,1-1.31,1.31,3.31,3.31,0,0,1-1.67.54,11.15,11.15,0,0,1-4.29-.59,15.84,15.84,0,0,1-5.3-3.32,39.21,39.21,0,0,1-6.54-8.16,16,16,0,0,0-5.08-5.27,11.92,11.92,0,0,0-5.4-1.69,12.78,12.78,0,0,0-5.26.83,23.92,23.92,0,0,0-4.53,2.25l-22.15,14.29.13-2.1L641.91,789a3.52,3.52,0,0,1,.53,2.49A3.06,3.06,0,0,1,641,793.59Zm-20-34.75,23.86-15.39a15.59,15.59,0,0,0,4.68-6,16.45,16.45,0,0,0,1.33-8.06,18.37,18.37,0,0,0-3.07-8.72,14.29,14.29,0,0,0-9.45-6.62,15.59,15.59,0,0,0-11.85,2.6l-22.72,14.65-.13-1.67L622.9,759.5Z" transform="translate(-131.47 -141.87)"/><path class="cls-1" d="M659.3,682.39l28-30.51a3.46,3.46,0,0,1,2.39-1.18,3.19,3.19,0,0,1,2.48.89,3,3,0,0,1,1.06,2.36,3.6,3.6,0,0,1-1,2.44L666,685l-.65-2.13,23.42,21.48-1.92-.08,22.86-24.92a3.37,3.37,0,0,1,2.43-1.14,3.23,3.23,0,0,1,2.44.85,3,3,0,0,1,1.06,2.36,3.56,3.56,0,0,1-1,2.44L691.9,708.6l-.15-1.52,24,22-.88,0,25.83-28.17a3.42,3.42,0,0,1,2.44-1.15,3.24,3.24,0,0,1,2.44.86,3,3,0,0,1,1.06,2.35,3.66,3.66,0,0,1-1,2.45l-28,30.5a3.16,3.16,0,0,1-2.39,1.11,3.37,3.37,0,0,1-2.4-.9l-53.35-48.93a3.38,3.38,0,0,1-1.1-2.31A3.19,3.19,0,0,1,659.3,682.39Z" transform="translate(-131.47 -141.87)"/><path class="cls-1" d="M738.49,553.36a4,4,0,0,1,1.8-1.92,3,3,0,0,1,2.78,0,5.75,5.75,0,0,1,1.25.81L800,604.81a2.83,2.83,0,0,1,.93,1.78,3.41,3.41,0,0,1-.22,1.88,4.13,4.13,0,0,1-1.3,1.65,3.13,3.13,0,0,1-2.06.56L744,608.57l.58-.73,36.72,38.52a3,3,0,0,1,.92,2,4.21,4.21,0,0,1-.35,2,3.34,3.34,0,0,1-1.26,1.42,2.82,2.82,0,0,1-2,.48l-76.26-7a5,5,0,0,1-1.33-.36,3,3,0,0,1-1.86-2.2,4.22,4.22,0,0,1,.2-2.64,3.72,3.72,0,0,1,1.35-1.62,2.88,2.88,0,0,1,2-.49l69.76,6.52-.41,1.19L735.4,607.55a3.28,3.28,0,0,1-1-1.76,2.72,2.72,0,0,1,.35-2,2.79,2.79,0,0,1,1.28-1.6,4.08,4.08,0,0,1,2-.51l52.49,2.45,0,1.22-51.44-48a2.9,2.9,0,0,1-.93-1.78A4,4,0,0,1,738.49,553.36Z" transform="translate(-131.47 -141.87)"/><path class="cls-1" d="M739.88,531.39l4.45-41.16a3.53,3.53,0,0,1,1.23-2.37,3.21,3.21,0,0,1,2.53-.75,3.05,3.05,0,0,1,2.25,1.27A3.67,3.67,0,0,1,751,491l-4.18,38.57L745,528.19l31.6,3.42-1.6,1.08,3.64-33.62a3.43,3.43,0,0,1,1.28-2.37,3.26,3.26,0,0,1,2.47-.75,3,3,0,0,1,2.26,1.26,3.64,3.64,0,0,1,.63,2.58l-3.62,33.39-1-1.13L813,535.56l-.74.48,4.12-38a3.41,3.41,0,0,1,1.28-2.37,3.25,3.25,0,0,1,2.47-.75,3,3,0,0,1,2.25,1.26,3.64,3.64,0,0,1,.64,2.58l-4.46,41.15a3.19,3.19,0,0,1-1.28,2.31,3.34,3.34,0,0,1-2.46.7l-72-7.8a3.29,3.29,0,0,1-2.25-1.21A3.16,3.16,0,0,1,739.88,531.39Z" transform="translate(-131.47 -141.87)"/><path class="cls-1" d="M822.17,454.5a4,4,0,0,1-.6,2.9,3.13,3.13,0,0,1-2.19,1.41l-71.59,10.74a3.3,3.3,0,0,1-2.49-.6,3.18,3.18,0,0,1-1.36-2.25l-4.54-30.2a23.86,23.86,0,0,1,1-11.82,20.5,20.5,0,0,1,6.37-9,21.27,21.27,0,0,1,10.53-4.49,22.41,22.41,0,0,1,9.28.43,19.75,19.75,0,0,1,7.68,4,22.53,22.53,0,0,1,5.4,6.62l-.75,4.12a17.77,17.77,0,0,1,1.58-8.13,17.13,17.13,0,0,1,5.4-6.7A20.42,20.42,0,0,1,795,407.8a67.5,67.5,0,0,0,7.42-1.63,11.5,11.5,0,0,0,3.84-1.78,6.2,6.2,0,0,0,1.83-2.33,3.42,3.42,0,0,1,1.67-1.8,2.78,2.78,0,0,1,2.39-.07,2.65,2.65,0,0,1,1.49,1.15,4.49,4.49,0,0,1,.66,1.73,3.33,3.33,0,0,1-.19,1.74,11.26,11.26,0,0,1-2.31,3.67,15.81,15.81,0,0,1-5.2,3.46,39.18,39.18,0,0,1-10.13,2.61,15.88,15.88,0,0,0-6.89,2.46,11.84,11.84,0,0,0-3.77,4.23,12.77,12.77,0,0,0-1.41,5.13,24.51,24.51,0,0,0,.19,5.06l3.91,26.06-1.86-1,31.65-4.75a3.49,3.49,0,0,1,2.49.55A3,3,0,0,1,822.17,454.5Zm-39.9,3.93-4.22-28.07a15.59,15.59,0,0,0-3.52-6.74,16.5,16.5,0,0,0-6.8-4.52,18.26,18.26,0,0,0-9.21-.79,14.28,14.28,0,0,0-9.92,5.89,15.56,15.56,0,0,0-2.51,11.87l4,26.73-1.57-.56L783.65,457Z" transform="translate(-131.47 -141.87)"/><path class="cls-1" d="M711.57,354a3,3,0,0,1,.1-2.68,3.56,3.56,0,0,1,1.71-1.77,4.11,4.11,0,0,1,1.11-.28,3,3,0,0,1,1.13.08l44,10.34-4.59.46,35.55-14.95a3.28,3.28,0,0,1,2.59,0,3.56,3.56,0,0,1,1.93,4.59,3.29,3.29,0,0,1-1.8,1.86l-34.82,14.64,2.24-1.68-22.6,37.59a4.19,4.19,0,0,1-.83,1.09,3.48,3.48,0,0,1-1,.67,3,3,0,0,1-2.7-.15,3.84,3.84,0,0,1-1.83-1.87,3.37,3.37,0,0,1,.37-3.22l21.12-35.26.45,1.65-39.4-9.08A3.42,3.42,0,0,1,711.57,354Z" transform="translate(-131.47 -141.87)"/><path class="cls-2" d="M420.77,563.8s50.35,13.75,7,55.81C427.72,619.61,392.12,595.33,420.77,563.8Z" transform="translate(-131.47 -141.87)"/><path class="cls-2" d="M425.13,617.61c-4.55,11.79-21,20.13-21,20.13-.23.16-10.93-13.58-9.42-15.39" transform="translate(-131.47 -141.87)"/><path class="cls-2" d="M400.47,633.16s2.64,7.94-22.59,17.08l-3.28-8.71" transform="translate(-131.47 -141.87)"/><path class="cls-2" d="M420.77,563.8s11.3,14.55,7.83,34.18" transform="translate(-131.47 -141.87)"/><line class="cls-2" x1="278.85" y1="463.9" x2="277.09" y2="476.38"/><line class="cls-2" x1="258.62" y1="482.99" x2="254.8" y2="492.05"/><path class="cls-2" d="M420.18,563.66s-24.39-46.6-55.87,5C364.31,568.65,395.72,598.54,420.18,563.66Z" transform="translate(-131.47 -141.87)"/><path class="cls-2" d="M366.82,570.73c-10.5,7-15,24.9-15,24.9s15.55,8.29,16.91,6.59" transform="translate(-131.47 -141.87)"/><path class="cls-2" d="M381.72,578.57s-.57,19.85,2.87,30.27c10.92,1.06,29.62-4,29.62-4" transform="translate(-131.47 -141.87)"/><path class="cls-2" d="M381.71,589.29c-22.1,7.21-12.78,39.13-12.78,39.13s32.65,1.89,34.82-21.25" transform="translate(-131.47 -141.87)"/><path class="cls-2" d="M366.81,613.71c-20.23,8-13.2,33.87-13.2,33.87s26.2,1,29.6-20.51" transform="translate(-131.47 -141.87)"/><path class="cls-2" d="M357.08,598.21s-8.34-.83-11.7,25.79l9.49.92" transform="translate(-131.47 -141.87)"/><path class="cls-2" d="M420.18,563.66s-16.58-8.33-35-.63" transform="translate(-131.47 -141.87)"/><line class="cls-2" x1="250.15" y1="440.7" x2="238.37" y2="445.16"/><line class="cls-2" x1="235.99" y1="464.64" x2="227.99" y2="470.36"/><line class="cls-2" x1="284.74" y1="427.62" x2="271.53" y2="444.14"/><line class="cls-2" x1="253.12" y1="466.97" x2="247.12" y2="473.8"/><line class="cls-2" x1="237.46" y1="486.55" x2="233.07" y2="492.24"/></g></g></svg>